<?xml version="1.0" standalone="no"?>
<!DOCTYPE svg PUBLIC "-//W3C//DTD SVG 20010904//EN"
 "http://www.w3.org/TR/2001/REC-SVG-20010904/DTD/svg10.dtd">
<svg version="1.0" xmlns="http://www.w3.org/2000/svg"
 width="512.000000pt" height="512.000000pt" viewBox="0 0 512.000000 512.000000"
 preserveAspectRatio="xMidYMid meet">
<metadata>
Created by potrace 1.11, written by Peter Selinger 2001-2013
</metadata>
<g transform="translate(0.000000,512.000000) scale(0.100000,-0.100000)"
fill="#000000" stroke="none">
<path d="M2546 4739 c-27 -91 -81 -249 -96 -284 -5 -11 -30 -69 -56 -130 -44
-104 -189 -394 -203 -405 -3 -3 -15 -22 -26 -42 -11 -21 -23 -38 -27 -38 -5 0
-8 -5 -8 -11 0 -6 -10 -25 -23 -42 -12 -18 -27 -39 -32 -48 -18 -28 -48 -72
-102 -146 -29 -40 -53 -75 -53 -78 0 -4 -7 -13 -15 -21 -8 -9 -47 -60 -87
-115 -40 -54 -76 -99 -80 -99 -4 0 -8 -6 -8 -14 0 -8 -3 -16 -7 -18 -5 -1 -26
-30 -48 -63 -22 -33 -43 -61 -47 -63 -5 -2 -8 -10 -8 -18 0 -8 -4 -14 -10 -14
-5 0 -10 -4 -10 -9 0 -5 -18 -36 -40 -69 -22 -33 -40 -64 -40 -70 0 -6 -4 -12
-8 -14 -27 -11 -232 -432 -232 -476 0 -7 -4 -20 -9 -30 -20 -36 -41 -122 -66
-264 -46 -272 -31 -491 52 -748 16 -47 31 -86 36 -88 4 -2 7 -10 7 -18 0 -21
75 -168 128 -249 48 -76 72 -107 133 -173 21 -24 39 -48 39 -54 0 -7 5 -6 14
1 11 9 16 9 21 0 4 -6 1 -16 -6 -21 -10 -7 -8 -9 8 -5 17 4 20 1 15 -12 -5
-14 -3 -14 10 -3 14 11 16 10 11 -10 -4 -18 -2 -20 6 -8 8 12 13 12 33 -6 13
-12 31 -24 41 -27 10 -4 15 -12 12 -17 -4 -6 -3 -10 2 -9 14 4 43 -13 38 -21
-3 -5 4 -6 15 -3 11 3 20 1 20 -4 0 -13 201 -113 227 -113 17 -1 17 -1 0 -11
-9 -5 -23 -7 -30 -4 -6 4 -3 0 8 -9 11 -8 25 -20 31 -25 7 -5 14 -8 17 -5 2 3
20 -4 38 -15 89 -51 330 -90 454 -72 l60 8 -60 3 c-46 1 -54 4 -35 10 23 8 23
8 -10 11 -19 1 -43 3 -52 3 -9 0 -15 3 -12 7 3 5 42 8 87 8 45 0 89 2 97 5 8
3 34 7 57 10 51 6 264 65 277 77 6 5 16 9 24 9 18 0 106 42 110 53 2 4 12 7
22 7 10 0 21 4 24 9 3 5 29 20 58 35 29 14 81 46 115 70 43 30 69 42 85 39 16
-3 33 4 54 24 17 15 47 43 68 61 93 86 190 240 276 437 34 79 62 185 90 339
15 88 12 343 -6 465 -25 173 -63 308 -133 476 -17 40 -79 161 -110 213 -17 29
-31 57 -31 62 0 6 -3 10 -8 10 -4 0 -13 15 -21 33 -13 29 -67 115 -80 127 -8
6 -29 41 -38 60 -4 8 -12 20 -17 27 -22 25 -31 39 -44 64 -8 14 -38 57 -69 95
-30 38 -62 81 -71 96 -9 16 -20 28 -24 28 -4 0 -8 7 -8 15 0 8 -3 15 -8 15 -4
0 -18 18 -32 40 -14 22 -27 40 -30 40 -3 0 -16 18 -30 40 -14 22 -28 40 -32
40 -5 0 -8 6 -8 14 0 8 -4 16 -9 18 -11 4 -151 216 -151 229 0 5 -4 9 -9 9 -5
0 -13 10 -17 22 -3 12 -22 45 -40 74 -19 29 -34 56 -34 59 0 4 -8 19 -18 33
-10 15 -25 43 -32 62 -8 19 -16 37 -20 40 -8 7 -75 155 -106 235 -15 39 -31
74 -35 80 -5 5 -9 17 -9 27 0 10 -4 26 -10 36 -5 9 -23 60 -41 112 -34 105
-37 109 -43 89z m134 -424 c0 -9 18 -50 39 -93 21 -42 45 -92 52 -109 8 -18
17 -33 21 -33 5 0 8 -8 8 -19 0 -10 7 -24 15 -31 9 -7 14 -18 11 -25 -2 -6 5
-22 15 -36 10 -13 19 -30 19 -36 0 -7 5 -13 10 -13 6 0 10 -11 10 -25 0 -14 5
-25 10 -25 6 0 10 -7 10 -15 0 -8 5 -15 10 -15 6 0 10 -9 10 -19 0 -11 4 -23
10 -26 5 -3 22 -31 37 -61 14 -30 30 -54 35 -54 4 0 8 -9 8 -20 0 -11 7 -23
15 -26 8 -4 15 -11 15 -16 0 -6 17 -38 37 -72 21 -33 49 -82 63 -108 14 -27
33 -57 43 -68 9 -11 17 -25 17 -30 0 -13 62 -114 72 -118 4 -2 8 -10 8 -18 0
-8 11 -32 25 -52 14 -20 25 -44 25 -53 0 -9 7 -22 15 -29 8 -7 15 -19 15 -27
0 -8 9 -27 19 -42 11 -15 23 -40 27 -57 3 -16 12 -38 19 -49 26 -43 86 -226
111 -340 9 -38 20 -88 25 -110 6 -22 12 -143 15 -270 5 -230 3 -261 -35 -455
-5 -25 -12 -62 -16 -82 -4 -21 -11 -38 -15 -38 -4 0 -10 -16 -13 -35 -3 -20
-18 -61 -33 -93 -15 -31 -32 -68 -38 -82 -6 -14 -14 -27 -17 -30 -3 -3 -21
-33 -39 -68 -31 -59 -57 -77 -53 -36 1 10 -7 30 -18 45 -10 15 -19 32 -19 39
0 6 -13 25 -30 43 -16 18 -30 38 -30 46 0 16 -42 75 -78 109 -21 20 -24 32
-23 78 0 30 5 63 10 73 32 58 54 579 32 711 -14 81 -32 222 -34 275 -1 22 -5
42 -8 45 -3 3 -19 58 -34 123 -16 64 -32 117 -37 117 -4 0 -8 15 -8 33 0 18
-13 70 -30 117 -16 47 -30 96 -30 110 0 14 -7 34 -15 44 -8 11 -15 28 -15 37
0 10 -6 30 -14 46 -8 15 -20 48 -27 73 -6 25 -18 59 -25 77 -8 17 -14 38 -14
46 0 9 -4 18 -9 22 -5 3 -13 20 -17 37 -6 31 -10 40 -34 88 -5 11 -10 29 -10
40 0 12 -6 33 -14 48 -13 26 -67 206 -102 342 -9 36 -20 99 -25 140 -4 41 -11
89 -14 105 l-7 30 21 -33 c12 -18 21 -39 21 -47z m-263 -67 c-2 -7 -17 -53
-32 -103 -26 -86 -50 -149 -81 -208 -8 -16 -14 -33 -14 -38 0 -5 -11 -32 -25
-61 -14 -28 -25 -58 -25 -65 0 -7 -3 -13 -7 -13 -9 0 -33 -49 -33 -67 0 -7 -4
-13 -10 -13 -5 0 -10 -7 -10 -15 0 -14 -18 -53 -30 -65 -6 -6 -34 -62 -94
-192 -25 -53 -50 -99 -56 -103 -5 -3 -10 -12 -10 -20 0 -12 -54 -139 -81 -188
-17 -32 -69 -181 -69 -198 0 -10 -3 -19 -7 -21 -10 -4 -59 -154 -73 -223 -6
-28 -15 -68 -20 -90 -37 -167 -46 -259 -54 -556 -2 -86 -9 -165 -14 -175 -15
-29 -31 -116 -39 -211 l-6 -84 -14 38 c-7 21 -25 97 -40 168 -25 119 -27 149
-27 350 0 157 5 246 17 310 22 123 37 188 48 199 5 6 9 20 9 31 0 20 47 163
69 210 24 51 71 171 71 181 0 7 3 14 8 16 9 4 72 133 72 148 0 5 3 10 8 10 4
0 12 10 18 23 18 38 79 152 84 157 3 3 11 17 19 33 8 15 18 27 23 27 4 0 8 9
8 19 0 11 5 23 10 26 6 4 24 34 42 68 17 34 34 64 37 67 14 10 71 111 71 125
0 8 3 15 8 15 4 0 12 10 18 23 6 12 40 78 75 147 36 69 73 148 83 175 11 28
25 59 32 70 6 11 15 35 19 53 4 17 11 32 17 32 6 0 8 -6 5 -12z m-317 -3708
c0 -5 -7 -7 -15 -4 -8 4 -15 8 -15 10 0 2 7 4 15 4 8 0 15 -4 15 -10z m60 -15
c0 -16 -9 -19 -35 -9 -13 5 -14 8 -3 15 20 13 38 11 38 -6z"/>
<path d="M3031 3134 c0 -11 3 -14 6 -6 3 7 2 16 -1 19 -3 4 -6 -2 -5 -13z"/>
<path d="M3164 2611 c3 -18 6 -55 6 -82 0 -30 4 -49 11 -49 14 0 4 125 -12
149 -8 12 -9 7 -5 -18z"/>
<path d="M3189 2368 c-3 -13 -2 -84 2 -158 l5 -135 2 158 c2 148 -1 186 -9
135z"/>
<path d="M3325 1350 c3 -5 8 -10 11 -10 2 0 4 5 4 10 0 6 -5 10 -11 10 -5 0
-7 -4 -4 -10z"/>
<path d="M1573 2080 c0 -47 2 -66 4 -42 2 23 2 61 0 85 -2 23 -4 4 -4 -43z"/>
<path d="M1571 1934 c0 -11 3 -14 6 -6 3 7 2 16 -1 19 -3 4 -6 -2 -5 -13z"/>
<path d="M1596 1800 c2 -19 4 -44 5 -55 0 -18 1 -17 10 4 6 14 6 28 0 35 -5 6
-11 20 -14 31 -2 11 -3 4 -1 -15z"/>
<path d="M3390 750 c-9 -6 -10 -10 -3 -10 6 0 15 5 18 10 8 12 4 12 -15 0z"/>
<path d="M1965 569 c-5 -7 -4 -10 3 -5 5 3 12 1 14 -6 3 -8 9 -8 24 1 12 8 13
11 3 8 -9 -3 -21 -1 -27 5 -6 6 -12 6 -17 -3z"/>
</g>
</svg>
