<svg version="1" xmlns="http://www.w3.org/2000/svg" width="433.333" height="433.333" viewBox="0 0 325.000000 325.000000"><path d="M137.6 38.6c.3 2.2.7 4.7.9 5.6.4 2.1-1.1 1.5-9.8-4.4l-5.8-4 .5 5.6c.3 3.1.3 5.6.1 5.6-.4 0-15.5-6.9-16.7-7.6-.4-.3-.3 1 .3 2.8.5 1.8.9 3.6.9 3.9 0 .3-3.3 0-7.2-.7-10-1.8-10.5-1.7-7.2.8 1.6 1.3 3.5 2.8 4.1 3.4.7.7 1.8 1.5 2.5 1.8 1 .3.8.8-.5 1.6-7.7 4.9-13.1 18.6-18.6 46.7-2.7 13.7-4.6 27-3.5 24.5.3-.6 1.3-1.2 2.2-1.3 1.1 0 1.2-.3.5-.6-1-.3-1-1-.2-2.4.5-1.1 1.4-1.7 1.9-1.4.6.3.7 0 .4-.8-.6-1.7 4-10 5.1-9 .4.5.5.3.2-.4-.4-.6 1.7-4.9 4.5-9.6 7.7-12.2 12.7-18.6 16.4-20.5 4.1-2.1 13.5-3.7 29.4-4.8 4.7-.3 10.8-.7 13.5-.9 7.4-.6 44.8-.6 53.5 0 10.3.7 12.4 1 13.8 1.9.7.4 1.2.5 1.2.1 0-.3 1.3.1 2.8.9 3.9 2 13.4 12.5 12.6 13.8-.4.6-.3.8.3.5.9-.6 5 5.2 4.5 6.5-.1.5.2.8.7.8.5 0 2 2.2 3.4 4.8 1.4 2.7 3.5 6.5 4.7 8.6 1.1 2.1 1.9 4.5 1.6 5.3-.3.8-.2 1.2.3.9 1.1-.7 2.3 2.2 1.5 3.5-.3.5 0 .9.6.9 1.5 0 .8-4.7-3.1-20.5-2.4-9.5-8.6-32-12.5-44.7-.5-1.9-13.3-12.5-15.5-12.9-.8-.1-3.2.3-5.5.9-3.9 1.1-9.9 0-23.1-4.2-1.8-.6-2.2-.2-2.8 2.3l-.6 3-5.2-1.9c-9.5-3.4-10-3.5-8.8-1.2 2.4 4.4-2.9 4.3-11.6-.3-3.6-1.9-6.8-3.5-7-3.5-.3 0-.3 1.7-.1 3.7.3 3.6.2 3.7-3.1 4-3.3.3-4.4-.4-15.3-9.5-1.6-1.3-1.7-1.1-1.2 2.4z"/><path d="M103.6 88.2c.3.5 1 .6 1.5.3 1.3-.9 1.1-1.2-.6-1.2-.8 0-1.2.4-.9.9zM254.2 123c0 .8.4 2.6.8 4 .6 2 .8 2.1.8.5 0-1.1-.3-2.9-.8-4-.5-1.2-.8-1.4-.8-.5zM76.6 128.7c-.6 1.4-.5 1.5.5.6.7-.7 1-1.5.7-1.8-.3-.3-.9.2-1.2 1.2zM86.6 128.2c.3.5 1 .6 1.5.3 1.3-.9 1.1-1.2-.6-1.2-.8 0-1.2.4-.9.9zM76.1 132.6c0 1.1.3 1.4.6.6.3-.7.2-1.6-.1-1.9-.3-.4-.6.2-.5 1.3zM256.6 136.3c.3 1 .9 1.5 1.2 1.2.3-.3 0-1.1-.7-1.8-1-.9-1.1-.8-.5.6zM75 138.5c0 .8.4 1.5 1 1.5.5 0 .7-.7.4-1.5-.4-.8-.8-1.5-1-1.5-.2 0-.4.7-.4 1.5zM127.6 139.2c-10 1.3-14.1 5.6-13.9 14.5.2 9.4 6.4 18.4 15.2 22 4.4 1.9 13.9 1.8 18.4-.1 10.9-4.5 17.7-17.9 14.2-28-1.5-4.3-3.6-6.2-8.6-7.6-4.8-1.3-18-1.8-25.3-.8zM184.3 139.6c-4.3.8-6.3 1.9-8.5 4.3-2.9 3.2-3.2 4.6-2.9 11.5 1 18.9 25.1 28.7 39.8 16.1 9.9-8.4 11.7-24.9 3.4-29.8-5.2-3.1-21.6-4.2-31.8-2.1zM75.3 143.6c0 1.7.2 2.2.7 1.3.5-.6.6-1.8.3-2.6-.8-1.9-1-1.6-1 1.3zM257.1 143.6c0 1.1.3 1.4.6.6.3-.7.2-1.6-.1-1.9-.3-.4-.6.2-.5 1.3zM257.3 147.9c0 1.1.5 1.8.9 1.5.4-.3.5-1.1.1-1.9-.7-2.1-1.2-1.9-1 .4zM74 147.9c0 .6.4 1.3 1 1.6.6.3.7-.1.4-.9-.7-1.8-1.4-2.1-1.4-.7zM74.1 152.6c0 1.1.3 1.4.6.6.3-.7.2-1.6-.1-1.9-.3-.4-.6.2-.5 1.3zM257.5 156c.2 2.7 1 3.3 1.2 1 .1-1.1-.2-2.2-.6-2.4-.4-.3-.7.4-.6 1.4zM74.2 160.5c0 1.6.2 2.2.5 1.2.2-.9.2-2.3 0-3-.3-.6-.5.1-.5 1.8zM257.9 162.8c-.3 2-.2 2.9.4 2.3.5-.5.7-1.9.5-3.2-.3-2-.5-1.9-.9.9zM259.1 169.6c0 1.1.3 1.4.6.6.3-.7.2-1.6-.1-1.9-.3-.4-.6.2-.5 1.3zM260.1 176.6c0 1.1.3 1.4.6.6.3-.7.2-1.6-.1-1.9-.3-.4-.6.2-.5 1.3zM260.7 181.1c.4 1.3.8 1.8 1.1 1 .2-.7-.1-1.8-.6-2.3-.8-.8-.9-.4-.5 1.3zM71.2 183c0 1.4.2 1.9.5 1.2.2-.6.2-1.8 0-2.5-.3-.6-.5-.1-.5 1.3zM70.1 187.6c0 1.1.3 1.4.6.6.3-.7.2-1.6-.1-1.9-.3-.4-.6.2-.5 1.3zM262.2 188.5c0 1.6.2 2.2.5 1.2.2-.9.2-2.3 0-3-.3-.6-.5.1-.5 1.8zM69.5 191.1c-.4.6-.5 1.2-.2 1.5.2.3.7-.2 1-1.1.7-1.7.1-2-.8-.4zM68.5 195.1c-.4.6-.5 1.2-.2 1.5.2.3.7-.2 1-1.1.7-1.7.1-2-.8-.4zM263 194.5c0 .5.5 1.7 1 2.5s1 1 1 .5c0-.6-.5-1.7-1-2.5s-1-1.1-1-.5zM257.4 197.8c.4.3 1.4.7 2.2.8.9.1 1.3 0 1-.4-.4-.3-1.4-.7-2.2-.8-.9-.1-1.3 0-1 .4zM68.1 199.6c0 1.1.3 1.4.6.6.3-.7.2-1.6-.1-1.9-.3-.4-.6.2-.5 1.3zM257.5 202c-.3.5-.1 1 .4 1 .6 0 1.1-.5 1.1-1 0-.6-.2-1-.4-1-.3 0-.8.4-1.1 1zM261 202.1c0 .5.5.7 1 .4.6-.3 1-.8 1-1.1 0-.2-.4-.4-1-.4-.5 0-1 .5-1 1.1zM264.5 202c.3.5.8 1 1.1 1 .2 0 .4-.5.4-1 0-.6-.5-1-1.1-1-.5 0-.7.4-.4 1zM67 205.5c0 .8.4 1.5 1 1.5.5 0 .7-.7.4-1.5-.4-.8-.8-1.5-1-1.5-.2 0-.4.7-.4 1.5zM263.5 205c-.4.6-.3.9.2.8.4-.2.8.1.8.7 0 .5-.4.9-.8.7-.5-.1-.6.2-.2.8.3.6 1.1.7 1.7.4.7-.5.9.2.6 2-.3 1.4-.1 2.6.4 2.6s.8-1.6.6-3.5c-.2-3.8-2.1-6.4-3.3-4.5zM257.6 205.8c-.3.5.1.9.9.9s1.2-.4.9-.9c-.3-.4-.7-.8-.9-.8-.2 0-.6.4-.9.8zM258.1 208.3c.2.1 1.3.9 2.4 1.7 1.9 1.4 1.9 1.4.6-.3-.7-.9-1.8-1.7-2.4-1.7-.6 0-.8.1-.6.3zM65.7 213.9c-.4 1.7-.3 2.1.5 1.3.5-.5.8-1.6.6-2.3-.3-.8-.7-.3-1.1 1zM257 213.4c0 .2.7.7 1.6 1 .8.3 1.2.2.9-.4-.6-1-2.5-1.4-2.5-.6zM261.6 214.6c-.8 2-.8 2.4.2 2.4.4 0 .8-.9.9-2 .2-2.4-.3-2.6-1.1-.4zM265.6 215.3c-1.6 1.2-1.6 1.3.2 1.3 1 0 1.9-.6 1.9-1.3 0-.7-.1-1.3-.2-1.3s-.9.6-1.9 1.3zM65.3 218.9c0 1.1.5 1.8.9 1.5.4-.3.5-1.1.1-1.9-.7-2.1-1.2-1.9-1 .4zM277 218c0 .5.5 1 1.1 1 .5 0 .7-.5.4-1-.3-.6-.8-1-1.1-1-.2 0-.4.4-.4 1zM266.7 219.4c-.3.8-.3 1.7.1 2.1.3.3.7 2.8.8 5.4.2 4.7.1 4.9-4.4 8.2-7.8 5.6-11.3 7.9-11.7 7.9-.2 0-2.5 1.4-5 3.1-8.4 5.7-21.6 12.4-32.5 16.6-7.5 2.9-33.5 10.3-36 10.3-1.8 0-8 5.6-8 7.2 0 .4-1.1.8-2.5.8-2.4 0-9.2-5.4-8.8-6.9.1-.4-1-.8-2.4-.9-1.3-.1-2.9-.5-3.4-.8-.6-.3-.9-4.8-.7-10.2l.3-9.7-28.5-.5-28.6-.5-5.6-3.4c-3.2-1.9-5.4-3.9-5.1-4.4.3-.6.1-.7-.5-.3-1 .6-8.7-3.9-11.2-6.4-.3-.3-2.2-1.6-4.2-3-2.1-1.4-3.8-3.2-3.9-4 0-.8-.8.1-1.6 2-1 2.2-1.6 6.6-1.6 11.7v8.2l-11.1.3-11.1.3.1 6c.1 6 1 21 2 34 1.1 13.9 1.1 19 0 20.4-.8 1.1-.8 1.3.1.8.6-.4 1.4-.3 1.8.3 1 1.6 104.4 1.4 105-.3.3-.6.7-3.2.9-5.7.2-2.5.5-4.9.5-5.4.1-.4 11-.7 24.4-.5 13.3.1 25.2-.1 26.5-.4 4.1-1.3 6.6-1.8 12.8-2.7 3.4-.5 7.4-1.4 8.9-2 1.5-.6 3.1-.7 3.7-.4.7.4.8.2.4-.4-.4-.7-.2-1.3.3-1.3 2.3-.3 2.7-.5 6.2-2.6 2-1.3 6.1-3.4 9.2-4.8l5.7-2.5v10.3c0 5.6.4 10.8.9 11.5.4.7 4.8 2.1 9.7 3.2 15.6 3.3 43.7 1.2 46.6-3.4.4-.6.8-3.2.8-5.9V296h5.6c6.6 0 8.9-1 10.9-5 2.9-5.6 2.3-19.6-1.1-26.2-1.9-3.6-6.7-6-11.2-5.6l-3.7.3-.3-6.2-.3-6.2-3.9-1.1c-2.2-.6-6-1.2-8.5-1.3-2.5-.1-4.5-.4-4.5-.7 0-.3-3.7-.5-8.2-.5h-8.3v-2.7c-.1-1.5-.4-3-.8-3.4-.4-.4-.7-2-.7-3.5s-.4-2.9-.8-3.1c-.5-.2-1.2-2-1.5-4.1-.4-2.7-.3-3.6.6-3.1.9.5.9.4 0-.6-.6-.7-.9-1.8-.7-2.5.3-.7.1-1.6-.4-1.9-.6-.3-1.2 0-1.5.8zm45 47.9c4.2 1.5 6.7 11 4.4 17-1 2.5-4.7 3.9-8.2 3-1.7-.5-1.9-1.5-1.9-10.2 0-5.4.3-10 .6-10.3.6-.7 1.9-.5 5.1.5z"/><path d="M258.5 220c-.3.6.1.7.9.4 1.8-.7 2.1-1.4.7-1.4-.6 0-1.3.4-1.6 1zM64.1 226.6c0 1.1.3 1.4.6.6.3-.7.2-1.6-.1-1.9-.3-.4-.6.2-.5 1.3zM277 226.1c0 .5.5.7 1 .4.6-.3 1-.8 1-1.1 0-.2-.4-.4-1-.4-.5 0-1 .5-1 1.1zM265.5 227.1c-.4.6-.5 1.2-.2 1.5.2.3.7-.2 1-1.1.7-1.7.1-2-.8-.4zM219.1 233.1c-1.2.5-6 3.5-10.5 6.8-15 10.8-20.6 12.5-34.6 10.6l-5.5-.7 3.8 4c6.4 6.6 17.3 11.2 26.6 11.2 10.1 0 20.3-6.7 26.4-17.1 3.4-5.7 4-9.5 2.1-13-1.5-3.1-3.9-3.6-8.3-1.8zM7.3 302.2c-2.5 1.2-4 4.5-2.6 5.9.7.7 23.3 1.2 30.6.7 2.9-.2-.4-4.1-4.9-5.7-5.1-1.8-20.2-2.4-23.1-.9zM25 314.1c0 .5.5.7 1 .4.6-.3 1-.8 1-1.1 0-.2-.4-.4-1-.4-.5 0-1 .5-1 1.1zM36.5 320c-.3.6.1.7.9.4 1.8-.7 2.1-1.4.7-1.4-.6 0-1.3.4-1.6 1z"/></svg>